<svg version="1.1" xmlns="http://www.w3.org/2000/svg" xmlns:xlink="http://www.w3.org/1999/xlink" width="401.32429" height="249.84399" viewBox="0,0,401.32429,249.84399"><g transform="translate(-39.33786,-55.07801)"><g data-paper-data="{&quot;isPaintingLayer&quot;:true}" stroke-miterlimit="10" stroke-dasharray="" stroke-dashoffset="0" style="mix-blend-mode: normal"><path d="M39.33786,304.92199v-249.84399h401.32429v249.84399z" fill="#2287ff" fill-rule="nonzero" stroke="#000000" stroke-width="0" stroke-linecap="butt" stroke-linejoin="miter"/><g fill="none" fill-rule="evenodd" stroke="#ffffff" stroke-width="3" stroke-linecap="round" stroke-linejoin="round"><path d="M265.19345,97.20983c0,13.91493 -11.28008,25.19186 -25.19186,25.19186c-13.91493,0 -25.19501,-11.27693 -25.19501,-25.19186c0,-13.91493 11.28008,-25.19504 25.19501,-25.19504c13.91181,0 25.19186,11.28008 25.19186,25.19504z"/><path d="M252.95587,97.22212c0,5.46827 -0.88882,10.52682 -2.43315,14.65245c-2.33858,6.3665 -6.18372,10.52364 -10.52682,10.52364c-4.3431,0 -8.17561,-4.15714 -10.52682,-10.52364c-1.52859,-4.12563 -2.42053,-9.18418 -2.42053,-14.65245c0,-5.47142 0.89193,-10.52682 2.42053,-14.65245c2.35121,-6.40119 6.18372,-10.55833 10.52682,-10.55833c4.3431,0 8.18824,4.15714 10.52682,10.55833c1.54433,4.12563 2.43315,9.18103 2.43315,14.65245z"/><path d="M216.03352,104.47047h47.93168"/><path d="M216.03352,89.95545h47.93168"/><path d="M240.00092,72.01763v50.39005"/></g><text transform="translate(158.26359,164.25567) scale(0.71623,0.71623)" font-size="40" xml:space="preserve" fill="#ffffff" fill-rule="nonzero" stroke="none" stroke-width="1" stroke-linecap="butt" stroke-linejoin="miter" stroke-miterlimit="10" stroke-dasharray="" stroke-dashoffset="0" font-family="Sans Serif" font-weight="normal" text-anchor="start" style="mix-blend-mode: normal"><tspan x="0" dy="0">nhjrToolBox</tspan></text><text transform="translate(147.0974,273.48932) scale(0.67189,0.67189)" font-size="40" xml:space="preserve" fill="#ffffff" fill-rule="nonzero" stroke="none" stroke-width="1" stroke-linecap="butt" stroke-linejoin="miter" stroke-miterlimit="10" stroke-dasharray="" stroke-dashoffset="0" font-family="Sans Serif" font-weight="normal" text-anchor="start" style="mix-blend-mode: normal"><tspan x="0" dy="0">language pack</tspan></text><text transform="translate(178.36271,229.12366) scale(1.17088,1.17088)" font-size="40" xml:space="preserve" fill="#ffffff" fill-rule="nonzero" stroke="none" stroke-width="1" stroke-linecap="butt" stroke-linejoin="miter" stroke-miterlimit="10" stroke-dasharray="" stroke-dashoffset="0" font-family="Sans Serif" font-weight="normal" text-anchor="start" style="mix-blend-mode: normal"><tspan x="0" dy="0">zh-tw</tspan></text></g></g></svg>